<?xml version="1.0" encoding="UTF-8"?>
<svg id="Layer_1" data-name="Layer 1" xmlns="http://www.w3.org/2000/svg" viewBox="0 0 416.53 466.38">
  <defs>
    <style>
      .cls-1 {
        fill: #f27024;
      }

      .cls-2 {
        fill: #faa21e;
      }
    </style>
  </defs>
  <path class="cls-1" d="M199.82,363.97L80.36,194.19c-2.21-3.89-6.8-13.85-7.76-24.51-.53-5.93,.1-11.19,1.93-16.09,2.35-6.26,6.94-12.57,13.67-18.78l71.44-50.47,.43-.34c2.78-1.86,10.84-6.23,19.7-7.2,5.88-.64,14.08-.3,25.44,8.09,9.14,6.75,13.14,14.39,13.78,26.39l3.41,63.15h.02s76.21-61.02,76.21-61.02c-.32-.01-.58-.02-.76-.02,1.42-25.98-4.91-57.34-33.58-83.75-61.6-56.76-129.43-14.54-129.43-14.54L52.5,60.78C-34.71,121,13.05,212.36,13.05,212.36l143.27,254.02h0s43.53-102.44,43.53-102.44c-.01,.01-.03,.02-.04,.03Z"/>
  <path class="cls-2" d="M413.8,218.59c-20.09-98.51-105.27-104.8-115.93-105.2l-75.47,61.04,67.52-1.3c1.2-.05,11.94-.31,23.12,4.64,5.75,2.54,10.59,6,14.81,10.58,6.01,6.52,10.89,15.55,14.5,26.82,3.11,9.71,3.64,18.52,1.6,26.91-2.4,9.92-6.97,16.62-11.6,22.88-8.34,11.27-17.21,17.96-20.37,20.31-15.42,11.45-57.71,40.54-112.12,78.69l-43.53,102.44,166.8-94.82s112.13-47.76,90.67-152.96Z"/>
</svg>