<?xml version="1.0" encoding="UTF-8"?>
<svg id="Layer_1" data-name="Layer 1" xmlns="http://www.w3.org/2000/svg" viewBox="0 0 1038.07 351.54">
  <defs>
    <style>
      .cls-1 {
        fill: #332259;
      }

      .cls-2 {
        fill: #e07d42;
      }
    </style>
  </defs>
  <g>
    <g>
      <path class="cls-1" d="M356.55,97.06h-70.75v79.71h-17.65V88.31c0-1.22,.23-2.38,.68-3.46s1.07-2.04,1.87-2.85c.79-.81,1.73-1.45,2.82-1.9,1.09-.45,2.26-.68,3.53-.68h79.51v17.65Zm-7.88,39.93h-55.81v-17.79h55.81v17.79Z"/>
      <path class="cls-1" d="M386.25,88.31h-17.65v-15.96h17.65v15.96Zm0,88.47h-17.65V103.38h17.65v73.4Z"/>
      <path class="cls-1" d="M482.87,176.78h-17.65v-40.74c0-2.31-.4-4.38-1.19-6.22-.79-1.83-1.87-3.4-3.23-4.72-1.36-1.31-2.95-2.32-4.79-3.02-1.83-.7-3.82-1.05-5.94-1.05h-30.89v55.75h-17.65V112.14c0-1.22,.23-2.37,.68-3.43,.45-1.06,1.09-1.99,1.9-2.78,.81-.79,1.77-1.41,2.85-1.87,1.09-.45,2.24-.68,3.46-.68h39.79c2.22,0,4.56,.25,7.03,.75,2.47,.5,4.91,1.3,7.33,2.41,2.42,1.11,4.73,2.51,6.92,4.21,2.2,1.7,4.14,3.76,5.84,6.18,1.7,2.42,3.04,5.22,4.04,8.38,.99,3.17,1.49,6.74,1.49,10.73v40.74Z"/>
      <path class="cls-1" d="M576.76,183.84c0,3.03-.39,5.76-1.15,8.18-.77,2.42-1.79,4.55-3.06,6.38-1.27,1.83-2.74,3.39-4.41,4.68-1.67,1.29-3.43,2.34-5.26,3.16-1.83,.81-3.69,1.41-5.57,1.8-1.88,.39-3.66,.58-5.33,.58h-31.85v-17.66h31.85c2.4,0,4.19-.61,5.36-1.83,1.18-1.22,1.77-2.98,1.77-5.29v-55.75c0-2.31-.59-4.06-1.77-5.26-1.18-1.2-2.96-1.8-5.36-1.8h-31.85c-2.17,0-3.89,.67-5.16,2.01-1.27,1.33-1.9,3.02-1.9,5.06v23.9c0,2.31,.61,4.07,1.83,5.3,1.22,1.22,3.01,1.83,5.36,1.83h31.71v17.65h-31.85c-1.67,0-3.44-.19-5.3-.58-1.86-.39-3.7-.99-5.53-1.8-1.83-.81-3.59-1.87-5.26-3.16-1.68-1.29-3.15-2.85-4.41-4.69-1.27-1.83-2.29-3.96-3.06-6.38-.77-2.42-1.15-5.15-1.15-8.18v-23.9c0-1.67,.19-3.44,.58-5.3,.38-1.85,.98-3.7,1.8-5.53s1.87-3.59,3.16-5.26c1.29-1.68,2.85-3.15,4.69-4.41,1.83-1.27,3.95-2.28,6.35-3.06,2.4-.77,5.11-1.15,8.15-1.15h31.85c1.67,0,3.45,.19,5.33,.58,1.88,.38,3.73,.98,5.57,1.8,1.83,.81,3.59,1.87,5.26,3.16,1.67,1.29,3.15,2.85,4.41,4.69,1.27,1.83,2.29,3.95,3.06,6.35,.77,2.4,1.15,5.12,1.15,8.15v55.75Z"/>
      <path class="cls-1" d="M670.6,127.69c0,2.44-.43,5.08-1.29,7.91-.86,2.83-2.25,5.46-4.17,7.88-1.92,2.42-4.43,4.45-7.53,6.08-3.1,1.63-6.87,2.44-11.31,2.44h-31.84v-16.77h31.84c2.4,0,4.26-.74,5.57-2.21,1.32-1.47,1.97-3.29,1.97-5.46,0-2.31-.74-4.12-2.21-5.43-1.47-1.31-3.25-1.97-5.33-1.97h-31.84c-2.4,0-4.25,.74-5.57,2.21-1.31,1.47-1.97,3.29-1.97,5.46v24.65c0,2.36,.73,4.19,2.21,5.5,1.47,1.31,3.29,1.97,5.46,1.97h31.71v16.84h-31.84c-2.44,0-5.08-.43-7.91-1.29-2.83-.86-5.46-2.25-7.88-4.17-2.42-1.92-4.45-4.44-6.08-7.54-1.63-3.1-2.44-6.87-2.44-11.3v-24.78c0-2.44,.43-5.08,1.29-7.91,.86-2.83,2.25-5.45,4.18-7.88,1.92-2.42,4.44-4.45,7.54-6.08,3.1-1.63,6.87-2.44,11.3-2.44h31.84c2.44,0,5.08,.43,7.91,1.29,2.83,.86,5.45,2.25,7.88,4.17,2.42,1.93,4.45,4.44,6.08,7.54,1.63,3.1,2.44,6.87,2.44,11.3Z"/>
      <path class="cls-1" d="M746.56,121.03h-39.72c-2.4,0-4.21,.6-5.43,1.8-1.22,1.2-1.83,2.95-1.83,5.26v48.68h-17.65v-48.68c0-3.03,.38-5.75,1.15-8.15,.77-2.4,1.8-4.51,3.09-6.35,1.29-1.83,2.77-3.4,4.45-4.69,1.68-1.29,3.43-2.34,5.26-3.16,1.83-.81,3.69-1.42,5.56-1.8,1.88-.39,3.63-.58,5.26-.58h39.86v17.65Z"/>
      <path class="cls-1" d="M827.22,121.03h-30.83v55.75h-17.86v-55.75h-22.95v-17.65h22.95v-23.97h17.86v23.97h30.83v17.65Z"/>
      <path class="cls-1" d="M856.38,88.31h-17.65v-15.96h17.65v15.96Zm0,88.47h-17.65V103.38h17.65v73.4Z"/>
      <path class="cls-1" d="M952.78,151.99c0,3.03-.39,5.76-1.15,8.18-.77,2.42-1.79,4.55-3.06,6.38-1.27,1.83-2.74,3.4-4.41,4.69-1.68,1.29-3.43,2.34-5.26,3.16-1.83,.81-3.68,1.42-5.53,1.8-1.85,.38-3.62,.58-5.3,.58h-31.84v-17.65h31.84c2.36,0,4.12-.61,5.3-1.83,1.18-1.22,1.77-2.99,1.77-5.3v-23.76c0-2.44-.6-4.25-1.8-5.43-1.2-1.18-2.96-1.77-5.26-1.77h-31.71c-2.4,0-4.21,.6-5.43,1.8-1.22,1.2-1.83,2.95-1.83,5.26v71.63h-17.65v-71.63c0-3.03,.38-5.75,1.15-8.15,.77-2.4,1.8-4.51,3.09-6.35,1.29-1.83,2.77-3.4,4.45-4.69,1.68-1.29,3.43-2.34,5.26-3.16,1.83-.81,3.69-1.42,5.56-1.8,1.88-.39,3.63-.58,5.26-.58h31.84c3.03,0,5.75,.39,8.15,1.15,2.4,.77,4.51,1.79,6.35,3.06,1.83,1.27,3.4,2.74,4.69,4.41,1.29,1.67,2.34,3.43,3.16,5.26s1.42,3.68,1.8,5.53c.38,1.86,.58,3.62,.58,5.3v23.9Z"/>
      <path class="cls-1" d="M1038.07,151.99c0,3.03-.39,5.76-1.15,8.18-.77,2.42-1.79,4.55-3.06,6.38-1.27,1.83-2.74,3.4-4.41,4.69-1.68,1.29-3.43,2.34-5.26,3.16-1.83,.81-3.69,1.42-5.57,1.8-1.88,.38-3.66,.58-5.33,.58h-47.8v-17.65h47.66c2.4,0,4.21-.61,5.43-1.83,1.22-1.22,1.83-2.99,1.83-5.3-.23-4.71-2.6-7.06-7.13-7.06h-27.36c-3.9,0-7.2-.68-9.91-2.04-2.72-1.36-4.92-3.05-6.62-5.09-1.7-2.04-2.92-4.23-3.67-6.59-.75-2.35-1.12-4.55-1.12-6.59,0-3.94,.7-7.25,2.11-9.95,1.4-2.69,3.17-4.88,5.29-6.55,2.13-1.67,4.44-2.88,6.93-3.63,2.49-.75,4.82-1.12,6.99-1.12h43.39v17.65h-43.25c-.91,0-1.62,.1-2.14,.31-.52,.2-.9,.48-1.15,.81-.25,.34-.4,.7-.44,1.09-.05,.39-.07,.76-.07,1.12,.04,.73,.18,1.29,.41,1.7,.23,.41,.51,.7,.85,.88,.34,.18,.73,.28,1.15,.31,.43,.02,.85,.03,1.26,.03h27.36c4.52,0,8.37,.81,11.54,2.44,3.17,1.63,5.73,3.68,7.67,6.14,1.94,2.47,3.36,5.15,4.24,8.05,.88,2.9,1.33,5.59,1.33,8.08Z"/>
    </g>
    <g>
      <path class="cls-2" d="M277.31,279.12h-9.16v-50.54h9.16v50.54Z"/>
      <path class="cls-2" d="M329.22,279.12h-9.16v-21.14c0-1.2-.21-2.27-.62-3.22-.41-.95-.97-1.77-1.67-2.45-.71-.68-1.53-1.2-2.49-1.57-.95-.36-1.98-.54-3.08-.54h-16.03v28.93h-9.16v-33.55c0-.64,.12-1.23,.35-1.78,.23-.55,.56-1.03,.99-1.44s.91-.74,1.48-.97c.56-.23,1.16-.35,1.8-.35h20.65c1.15,0,2.37,.13,3.65,.39,1.28,.26,2.55,.67,3.81,1.25,1.26,.58,2.45,1.31,3.59,2.18,1.14,.88,2.15,1.95,3.03,3.21,.88,1.26,1.58,2.71,2.1,4.35s.78,3.5,.78,5.57v21.14Z"/>
      <path class="cls-2" d="M379.47,279.12h-9.16v-21.14c0-1.2-.21-2.27-.62-3.22-.41-.95-.97-1.77-1.67-2.45-.71-.68-1.53-1.2-2.49-1.57-.95-.36-1.98-.54-3.08-.54h-16.03v28.93h-9.16v-33.55c0-.64,.12-1.23,.35-1.78,.23-.55,.56-1.03,.99-1.44s.91-.74,1.48-.97c.56-.23,1.16-.35,1.8-.35h20.65c1.15,0,2.37,.13,3.65,.39,1.28,.26,2.55,.67,3.81,1.25,1.26,.58,2.45,1.31,3.59,2.18,1.14,.88,2.15,1.95,3.03,3.21,.88,1.26,1.58,2.71,2.1,4.35,.52,1.64,.78,3.5,.78,5.57v21.14Z"/>
      <path class="cls-2" d="M428.95,266.26c0,1.58-.2,2.99-.6,4.25-.4,1.26-.93,2.36-1.59,3.31-.66,.95-1.42,1.76-2.29,2.43-.87,.67-1.78,1.22-2.73,1.64-.95,.43-1.92,.74-2.89,.93s-1.9,.3-2.77,.3h-16.53c-1.27,0-2.65-.23-4.16-.67-1.5-.45-2.89-1.18-4.18-2.21-1.28-1.02-2.35-2.35-3.21-3.98-.86-1.63-1.29-3.63-1.29-6.01v-12.4c0-2.35,.43-4.34,1.29-5.97,.86-1.63,1.92-2.96,3.21-3.98,1.28-1.02,2.67-1.76,4.18-2.2,1.5-.45,2.89-.67,4.16-.67h16.53c2.35,0,4.35,.43,5.99,1.27,1.64,.85,2.97,1.91,3.98,3.19,1.01,1.28,1.74,2.67,2.2,4.17,.46,1.51,.69,2.9,.69,4.2v12.4Zm-9.16-12.33c0-1.27-.32-2.21-.95-2.82-.63-.61-1.55-.91-2.75-.91h-16.46c-1.22,0-2.15,.31-2.78,.93-.63,.62-.95,1.54-.95,2.73v12.4c0,1.2,.32,2.11,.95,2.75,.64,.63,1.56,.95,2.78,.95h16.46c1.24,0,2.17-.31,2.78-.95,.61-.64,.92-1.55,.92-2.75v-12.33Z"/>
      <path class="cls-2" d="M482.2,241.03c-1.03,3.22-2.24,6.39-3.63,9.52-1.39,3.13-2.98,6.1-4.78,8.94-1.8,2.83-3.81,5.45-6.02,7.86-2.22,2.41-4.68,4.49-7.36,6.24-2.69,1.75-5.62,3.12-8.78,4.12-3.16,1-6.59,1.5-10.27,1.5-.63,0-1.23-.12-1.8-.35-.56-.23-1.06-.56-1.48-.97-.42-.41-.75-.89-.99-1.44-.23-.55-.35-1.14-.35-1.78v-33.62h9.16v28.65c2.23,0,4.37-.48,6.43-1.44,2.06-.97,4-2.24,5.83-3.82,1.83-1.59,3.53-3.39,5.09-5.41,1.56-2.02,2.95-4.09,4.18-6.22,1.22-2.13,2.26-4.21,3.12-6.26,.86-2.04,1.5-3.88,1.92-5.5h9.73Z"/>
      <path class="cls-2" d="M523.64,266.51c0,1.27-.22,2.64-.67,4.11-.45,1.47-1.17,2.83-2.17,4.08-1,1.26-2.3,2.31-3.91,3.15-1.61,.85-3.57,1.27-5.87,1.27h-16.53c-1.27,0-2.64-.23-4.1-.67-1.47-.45-2.83-1.17-4.09-2.17-1.26-1-2.31-2.3-3.15-3.91-.85-1.61-1.27-3.56-1.27-5.87,0-1.27,.22-2.64,.67-4.12,.45-1.48,1.17-2.85,2.17-4.11,1-1.25,2.3-2.31,3.91-3.15,1.61-.85,3.56-1.27,5.87-1.27h16.53v8.74h-16.53c-1.24,0-2.21,.38-2.89,1.14-.68,.77-1.02,1.71-1.02,2.84,0,1.2,.39,2.13,1.18,2.8s1.72,1.01,2.8,1.01h16.46c1.24,0,2.21-.38,2.89-1.13,.68-.75,1.02-1.69,1.02-2.82v-12.79c0-1.2-.37-2.15-1.11-2.85s-1.67-1.06-2.8-1.06h-20.12v-8.7h20.12c1.27,0,2.64,.23,4.1,.67,1.47,.44,2.83,1.17,4.09,2.17,1.26,1,2.31,2.3,3.15,3.91,.85,1.61,1.27,3.57,1.27,5.87v12.86Z"/>
      <path class="cls-2" d="M565.96,250.19h-16v28.93h-9.27v-28.93h-11.91v-9.17h11.91v-12.44h9.27v12.44h16v9.17Z"/>
      <path class="cls-2" d="M581.29,233.2h-9.16v-8.28h9.16v8.28Zm0,45.92h-9.16v-38.1h9.16v38.1Z"/>
      <path class="cls-2" d="M631.51,266.26c0,1.58-.2,2.99-.6,4.25-.4,1.26-.93,2.36-1.59,3.31-.66,.95-1.42,1.76-2.29,2.43-.87,.67-1.78,1.22-2.73,1.64-.95,.43-1.92,.74-2.89,.93-.97,.2-1.9,.3-2.77,.3h-16.53c-1.27,0-2.65-.23-4.16-.67-1.5-.45-2.89-1.18-4.18-2.21-1.28-1.02-2.35-2.35-3.21-3.98-.86-1.63-1.29-3.63-1.29-6.01v-12.4c0-2.35,.43-4.34,1.29-5.97,.86-1.63,1.92-2.96,3.21-3.98,1.28-1.02,2.67-1.76,4.18-2.2,1.5-.45,2.89-.67,4.16-.67h16.53c2.35,0,4.35,.43,5.99,1.27,1.64,.85,2.97,1.91,3.98,3.19,1.01,1.28,1.74,2.67,2.2,4.17,.46,1.51,.69,2.9,.69,4.2v12.4Zm-9.16-12.33c0-1.27-.32-2.21-.95-2.82-.63-.61-1.55-.91-2.75-.91h-16.46c-1.22,0-2.15,.31-2.78,.93-.63,.62-.95,1.54-.95,2.73v12.4c0,1.2,.32,2.11,.95,2.75,.64,.63,1.56,.95,2.78,.95h16.46c1.24,0,2.17-.31,2.78-.95,.61-.64,.92-1.55,.92-2.75v-12.33Z"/>
      <path class="cls-2" d="M681.51,279.12h-9.16v-21.14c0-1.2-.21-2.27-.62-3.22-.41-.95-.97-1.77-1.67-2.45-.71-.68-1.53-1.2-2.49-1.57-.95-.36-1.98-.54-3.08-.54h-16.03v28.93h-9.16v-33.55c0-.64,.12-1.23,.35-1.78,.23-.55,.56-1.03,.99-1.44s.91-.74,1.48-.97c.56-.23,1.16-.35,1.8-.35h20.65c1.15,0,2.37,.13,3.65,.39,1.28,.26,2.55,.67,3.81,1.25,1.26,.58,2.45,1.31,3.59,2.18,1.14,.88,2.15,1.95,3.03,3.21,.88,1.26,1.58,2.71,2.1,4.35s.78,3.5,.78,5.57v21.14Z"/>
      <path class="cls-2" d="M726.37,266.26c0,1.58-.2,2.99-.6,4.25-.4,1.26-.93,2.36-1.59,3.31-.66,.95-1.42,1.76-2.29,2.43-.87,.67-1.78,1.22-2.73,1.64-.95,.43-1.91,.74-2.89,.93s-1.9,.3-2.77,.3h-24.81v-9.17h24.74c1.24,0,2.18-.31,2.82-.95,.63-.64,.95-1.55,.95-2.75-.12-2.44-1.35-3.66-3.7-3.66h-14.2c-2.02,0-3.73-.35-5.15-1.06-1.41-.7-2.55-1.59-3.44-2.64-.88-1.06-1.52-2.2-1.9-3.42-.39-1.22-.58-2.36-.58-3.42,0-2.04,.37-3.77,1.09-5.16,.73-1.4,1.64-2.53,2.75-3.4,1.1-.87,2.3-1.5,3.59-1.88,1.29-.39,2.5-.58,3.63-.58h22.52v9.17h-22.45c-.47,0-.84,.05-1.11,.16-.27,.11-.47,.25-.6,.43s-.21,.36-.23,.56c-.02,.2-.04,.39-.04,.58,.02,.38,.09,.67,.21,.88,.12,.21,.27,.37,.44,.46,.18,.09,.38,.15,.6,.16,.22,0,.44,.02,.65,.02h14.2c2.35,0,4.35,.42,5.99,1.27,1.64,.85,2.97,1.91,3.98,3.19,1.01,1.28,1.75,2.67,2.2,4.18,.46,1.5,.69,2.9,.69,4.19Z"/>
      <path class="cls-2" d="M803.69,279.12h-41.79c-.66,0-1.27-.12-1.83-.35-.56-.23-1.05-.56-1.46-.97-.41-.41-.74-.89-.97-1.46-.24-.56-.35-1.17-.35-1.83v-45.92h9.16v41.37h37.25v9.17Z"/>
      <path class="cls-2" d="M818.7,233.2h-9.17v-8.28h9.17v8.28Zm0,45.92h-9.17v-38.1h9.17v38.1Z"/>
      <path class="cls-2" d="M861.48,279.12h-9.16v-25.27c0-1.2-.32-2.11-.95-2.73-.63-.62-1.57-.93-2.82-.93h-11.91v28.93h-9.16v-33.55c0-.64,.12-1.23,.35-1.78,.23-.55,.56-1.03,.99-1.44,.42-.41,.92-.74,1.48-.97s1.16-.35,1.8-.35h16.53c1.27,0,2.63,.23,4.08,.67,1.46,.44,2.84,1.16,4.16,2.15v-2.82h12.4c.87,0,1.79,.1,2.75,.3,.96,.2,1.92,.51,2.87,.93,.95,.42,1.86,.97,2.73,1.64,.87,.67,1.63,1.48,2.29,2.43,.66,.95,1.18,2.05,1.59,3.29,.4,1.25,.6,2.66,.6,4.23v25.27h-9.16v-25.27c0-1.2-.3-2.11-.9-2.73-.6-.62-1.52-.93-2.77-.93h-8.24c.31,1.13,.46,2.35,.46,3.66v25.27Z"/>
      <path class="cls-2" d="M899.82,233.2h-9.17v-8.28h9.17v8.28Zm0,45.92h-9.17v-38.1h9.17v38.1Z"/>
      <path class="cls-2" d="M943.24,250.19h-16v28.93h-9.27v-28.93h-11.91v-9.17h11.91v-12.44h9.27v12.44h16v9.17Z"/>
      <path class="cls-2" d="M990.11,253.64c0,1.27-.22,2.64-.67,4.11-.45,1.47-1.17,2.83-2.17,4.09-1,1.26-2.3,2.31-3.91,3.15-1.61,.85-3.57,1.27-5.87,1.27h-16.53v-8.7h16.53c1.24,0,2.21-.38,2.89-1.14,.68-.77,1.02-1.71,1.02-2.84,0-1.2-.38-2.14-1.14-2.82-.77-.68-1.69-1.02-2.77-1.02h-16.53c-1.24,0-2.21,.39-2.89,1.15-.68,.76-1.02,1.71-1.02,2.84v12.79c0,1.22,.39,2.17,1.15,2.85,.76,.68,1.71,1.02,2.84,1.02h16.46v8.74h-16.53c-1.27,0-2.64-.23-4.1-.67-1.47-.45-2.83-1.17-4.09-2.17-1.26-1-2.31-2.3-3.15-3.91-.85-1.61-1.27-3.56-1.27-5.87v-12.86c0-1.27,.22-2.64,.67-4.11,.44-1.47,1.17-2.83,2.17-4.08,1-1.26,2.3-2.31,3.91-3.15,1.61-.85,3.57-1.27,5.87-1.27h16.53c1.27,0,2.64,.23,4.11,.67,1.47,.44,2.83,1.17,4.09,2.17,1.26,1,2.31,2.3,3.15,3.91,.85,1.61,1.27,3.57,1.27,5.87Z"/>
      <path class="cls-2" d="M1038.07,266.26c0,1.58-.2,2.99-.6,4.25s-.93,2.36-1.59,3.31c-.66,.95-1.42,1.76-2.29,2.43-.87,.67-1.78,1.22-2.73,1.64-.95,.43-1.91,.74-2.89,.93s-1.9,.3-2.76,.3h-16.53c-1.58,0-2.99-.2-4.23-.6-1.24-.4-2.34-.93-3.3-1.6-.95-.67-1.76-1.44-2.43-2.31-.67-.87-1.21-1.78-1.64-2.73-.42-.95-.73-1.91-.93-2.89-.2-.97-.3-1.89-.3-2.73v-12.4c0-2.35,.43-4.34,1.28-5.97,.86-1.63,1.93-2.96,3.21-3.98,1.28-1.02,2.68-1.76,4.18-2.2,1.5-.45,2.89-.67,4.16-.67h16.53v9.17h-16.46c-1.22,0-2.15,.31-2.79,.93-.63,.62-.95,1.54-.95,2.73v12.33c0,1.24,.31,2.18,.93,2.82,.62,.63,1.53,.95,2.73,.95h16.53c1.24,0,2.17-.31,2.78-.95,.61-.64,.92-1.55,.92-2.75v-41.34h9.16v41.34Z"/>
    </g>
  </g>
  <g>
    <path class="cls-1" d="M74.32,349.73c.79,.95-.37,2.29-1.42,1.63C-.4,305.67-29.33,171.06,37.69,87.16,107.76,1.74,199.13,44.82,228.22,123.81c7.91,21.47,11.41,44.12,11.05,66.99-.57,35.66-10,73.08-31.42,102.27-5.97,8.13-12.91,15.57-20.79,21.86-19.13,15.28-43.3,22.67-67.7,21.58-26.45-1.18-45.26-25.19-56-47.08-13.65-27.81-19.28-60.07-17.06-90.9,.02-.31,.05-.63,.07-.94,1.51-19.46,5.17-39.29,13.53-57.06,8.55-18.2,22.76-33.3,42.74-38.38,4.03-1.02,8.17-1.62,12.32-1.86,23.46-1.4,41.5,15.85,51.5,35.44,10.93,21.41,15.11,46.83,13.37,70.72-.96,13.13-3.99,26.25-10.05,38-4.72,9.16-11.63,17.4-20.88,22.21-15.05,7.81-33.51,4.55-44.16-8.97-7.03-8.92-10.22-20.4-11.56-31.51-1.46-12.14-.81-24.59,1.53-36.57,1.93-9.9,4.94-20.26,10.74-28.65,3.99-5.78,10.23-10.99,17.51-7,13.75,7.54,19.32,27.7,20.54,42.1,1.3,15.27-2.22,32.01-14.29,42.41-1.44,1.24-3.5-.45-2.54-2.09,8.65-14.74,9.12-34.64,4.76-50.82-1.25-4.65-2.99-9.43-5.94-13.3-10.75-14.08-16.55,7.5-17.9,15.42-2.27,13.33-2.14,27.39,.31,40.68,2.48,13.47,9.91,33.97,27.23,31.09,12.88-2.14,19.81-14.87,23.57-26.18,4.84-14.53,6.13-30.43,5.05-45.65-.53-7.46-1.48-14.98-3.72-22.14-3.29-10.5-10.65-20.93-18.36-28.69-6.45-6.48-14.69-12.02-23.99-13.03-12.52-1.36-22.55,6.74-28.46,17.14-7.9,12.88-13.08,41.43-12.05,70.98,1.6,45.79,14.77,92.07,52.18,89.96,28.15-2.34,49.43-25.05,61.71-48.82,12.67-24.52,18.5-53.76,13.96-81.15-.64-3.84-1.76-7.53-2.56-11.32-5.28-24.76-12.54-47.04-26.95-60.5-15.35-18.32-35.28-31.57-58.56-32.6-9.96-.44-21.42,4.46-30.02,8.95-11.5,6.01-21.7,14.38-30.21,24.14-23.38,26.79-33.01,62.65-33.72,97.62-.89,43.33,10.88,86.8,32.58,124.24,5.54,9.56,11.72,18.84,18.78,27.35Z"/>
    <path class="cls-2" d="M13.59,97.81C67.16-67.34,223.64,4.71,234.45,108.46,190.71,17.75,92.41-22.28,13.59,97.81Z"/>
  </g>
</svg>